<svg width="176" height="30" viewBox="0 0 176 30" fill="none" xmlns="http://www.w3.org/2000/svg">
<path d="M13.62 8.8L8.82 22H5.6L0.78 8.8H3.7L6.48 17.2L7.24 19.8L7.98 17.22L10.78 8.8H13.62ZM16.7184 10.56C16.1451 10.56 15.7184 10.44 15.4384 10.2C15.1584 9.94667 15.0184 9.58 15.0184 9.1C15.0184 8.60667 15.1584 8.24 15.4384 8C15.7184 7.74667 16.1451 7.62 16.7184 7.62C17.2918 7.62 17.7184 7.74667 17.9984 8C18.2784 8.24 18.4184 8.60667 18.4184 9.1C18.4184 9.58 18.2784 9.94667 17.9984 10.2C17.7184 10.44 17.2918 10.56 16.7184 10.56ZM18.0784 12V22H15.3384V12H18.0784ZM25.623 22.2C24.5696 22.2 23.6496 21.9933 22.863 21.58C22.0896 21.1667 21.4896 20.5733 21.063 19.8C20.6363 19.0267 20.423 18.0933 20.423 17C20.423 15.9067 20.6363 14.9733 21.063 14.2C21.4896 13.4267 22.083 12.8333 22.843 12.42C23.6163 12.0067 24.4963 11.8 25.483 11.8C26.4963 11.8 27.3563 12.0067 28.063 12.42C28.7696 12.82 29.3096 13.3733 29.683 14.08C30.0563 14.7733 30.243 15.5667 30.243 16.46C30.243 16.7267 30.2363 16.98 30.223 17.22C30.2096 17.46 30.1896 17.6733 30.163 17.86H22.183V15.96H28.963L27.643 16.44C27.643 15.6 27.4496 14.9533 27.063 14.5C26.6896 14.0467 26.1563 13.82 25.463 13.82C24.9563 13.82 24.5163 13.94 24.143 14.18C23.783 14.42 23.5096 14.78 23.323 15.26C23.1363 15.7267 23.043 16.32 23.043 17.04C23.043 17.7467 23.143 18.3333 23.343 18.8C23.5563 19.2533 23.8496 19.5933 24.223 19.82C24.6096 20.0467 25.0696 20.16 25.603 20.16C26.1896 20.16 26.663 20.0467 27.023 19.82C27.383 19.5933 27.663 19.28 27.863 18.88L30.043 19.72C29.8296 20.24 29.503 20.6867 29.063 21.06C28.6363 21.4333 28.123 21.72 27.523 21.92C26.9363 22.1067 26.303 22.2 25.623 22.2ZM45.1916 12H48.1116L44.9116 22H41.7516L39.5716 15.2L37.4716 22H34.3116L31.1116 12H34.0316L36.0316 19.66L38.2516 12H40.9716L43.2116 19.66L45.1916 12ZM70.1347 8.8V22H67.6347V15.12L67.7747 11.26H67.7347L64.0747 22H61.8147L58.1747 11.26H58.1347L58.2747 15.12V22H55.7747V8.8H59.7747L62.1547 16L62.9947 18.98H63.0347L63.8947 16.02L66.2547 8.8H70.1347ZM82.6877 12L78.6477 22.62C78.3277 23.5267 77.9677 24.2467 77.5677 24.78C77.181 25.3133 76.7277 25.7 76.2077 25.94C75.701 26.18 75.0943 26.3 74.3877 26.3C73.8677 26.3 73.3877 26.2333 72.9477 26.1C72.521 25.98 72.1477 25.82 71.8277 25.62L72.4077 23.64C72.661 23.84 72.9277 23.98 73.2077 24.06C73.4877 24.1533 73.8077 24.2 74.1677 24.2C74.541 24.2 74.861 24.12 75.1277 23.96C75.4077 23.8 75.641 23.48 75.8277 23L76.1677 22.14L75.0677 19.54L72.0077 12H75.0477L76.9477 18L77.4677 20L78.0877 17.88L79.9077 12H82.6877ZM92.22 22L88.38 8.8H91.32L93.92 19.7L96.56 8.8H99.2L101.88 19.7L104.46 8.8H107.28L103.44 22H100.34L98.5 14.8L97.88 11.68H97.84L97.22 14.8L95.4 22H92.22ZM112.77 11.8C113.783 11.8 114.67 12.0067 115.43 12.42C116.203 12.8333 116.803 13.4267 117.23 14.2C117.67 14.9733 117.89 15.9067 117.89 17C117.89 18.08 117.67 19.0133 117.23 19.8C116.803 20.5733 116.203 21.1667 115.43 21.58C114.67 21.9933 113.783 22.2 112.77 22.2C111.77 22.2 110.883 21.9933 110.11 21.58C109.336 21.1667 108.73 20.5733 108.29 19.8C107.863 19.0133 107.65 18.08 107.65 17C107.65 15.9067 107.863 14.9733 108.29 14.2C108.73 13.4267 109.336 12.8333 110.11 12.42C110.883 12.0067 111.77 11.8 112.77 11.8ZM112.77 13.84C112.263 13.84 111.83 13.96 111.47 14.2C111.123 14.4267 110.856 14.7733 110.67 15.24C110.483 15.7067 110.39 16.2933 110.39 17C110.39 17.7067 110.483 18.2933 110.67 18.76C110.856 19.2267 111.123 19.58 111.47 19.82C111.83 20.0467 112.263 20.16 112.77 20.16C113.263 20.16 113.683 20.0467 114.03 19.82C114.39 19.58 114.663 19.2267 114.85 18.76C115.036 18.2933 115.13 17.7067 115.13 17C115.13 16.2933 115.036 15.7067 114.85 15.24C114.663 14.7733 114.39 14.4267 114.03 14.2C113.683 13.96 113.263 13.84 112.77 13.84ZM120.182 22V12H122.562L122.742 13.96C123.009 13.2667 123.396 12.7333 123.902 12.36C124.422 11.9867 125.069 11.8 125.842 11.8C126.069 11.8 126.276 11.82 126.462 11.86C126.649 11.9 126.802 11.9533 126.922 12.02L126.602 14.32C126.469 14.2667 126.302 14.2267 126.102 14.2C125.916 14.1733 125.669 14.16 125.362 14.16C124.962 14.16 124.576 14.26 124.202 14.46C123.829 14.6467 123.522 14.94 123.282 15.34C123.042 15.7267 122.922 16.22 122.922 16.82V22H120.182ZM138.8 12L134.18 16.82L133.64 17.08L130.64 20.3L130.6 17.38L135.68 12H138.8ZM131.36 7.62V22H128.62V7.62H131.36ZM134.56 15.18L139.04 22H135.94L132.68 16.78L134.56 15.18Z" fill="#F3F2FF"/>
<path fill-rule="evenodd" clip-rule="evenodd" d="M161.793 18.7071C161.402 18.3166 161.402 17.6834 161.793 17.2929L164.086 15L161.793 12.7071C161.402 12.3166 161.402 11.6834 161.793 11.2929C162.183 10.9024 162.817 10.9024 163.207 11.2929L165.923 14.0087C166.47 14.5562 166.47 15.4438 165.923 15.9913L163.207 18.7071C162.817 19.0976 162.183 19.0976 161.793 18.7071ZM158.75 5.38782C160.049 5.0992 161.624 5 163.5 5C165.376 5 166.951 5.0992 168.25 5.38782C169.56 5.67897 170.649 6.176 171.486 7.01358C172.324 7.85116 172.821 8.94002 173.112 10.2501C173.401 11.5488 173.5 13.1243 173.5 15C173.5 16.8757 173.401 18.4512 173.112 19.7499C172.821 21.06 172.324 22.1488 171.486 22.9864C170.649 23.824 169.56 24.321 168.25 24.6122C166.951 24.9008 165.376 25 163.5 25C161.624 25 160.049 24.9008 158.75 24.6122C157.44 24.321 156.351 23.824 155.514 22.9864C154.676 22.1488 154.179 21.06 153.888 19.7499C153.599 18.4512 153.5 16.8757 153.5 15C153.5 13.1243 153.599 11.5488 153.888 10.2501C154.179 8.94002 154.676 7.85116 155.514 7.01358C156.351 6.176 157.44 5.67897 158.75 5.38782Z" fill="#F3F2FF"/>
</svg>

